<svg width="36" height="36" viewBox="0 0 36 36" fill="none" xmlns="http://www.w3.org/2000/svg">
  <path d="M18 2.25C11.0375 2.25 5.25 8.0325 5.25 15C5.25 24.75 18 33.75 18 33.75C18 33.75 30.75 24.75 30.75 15C30.75 8.0325 24.9625 2.25 18 2.25ZM18 19.5C15.515 19.5 13.5 17.485 13.5 15C13.5 12.515 15.515 10.5 18 10.5C20.485 10.5 22.5 12.515 22.5 15C22.5 17.485 20.485 19.5 18 19.5Z" fill="#3B82F6"/>
  <circle cx="18" cy="15" r="6" fill="#3B82F6"/>
  <circle cx="18" cy="15" r="3" fill="white"/>
</svg> 